<?xml version="1.0" encoding="UTF-8"?>
<svg id="Capa_1" data-name="Capa 1" xmlns="http://www.w3.org/2000/svg" xmlns:xlink="http://www.w3.org/1999/xlink" viewBox="0 0 500 230.09">
  <defs>
    <style>
      .cls-1 {
        fill: url(#Degradado_sin_nombre_166);
      }

      .cls-2 {
        fill: url(#Degradado_sin_nombre_166-3);
      }

      .cls-3 {
        fill: #20274e;
      }

      .cls-4 {
        fill: url(#Degradado_sin_nombre_166-2);
      }
    </style>
    <linearGradient id="Degradado_sin_nombre_166" data-name="Degradado sin nombre 166" x1="301.07" y1="117.33" x2="471.67" y2="117.33" gradientTransform="translate(-4.24 22.61) rotate(-5.59)" gradientUnits="userSpaceOnUse">
      <stop offset="0" stop-color="#ffef26"/>
      <stop offset=".02" stop-color="#fee921"/>
      <stop offset=".13" stop-color="#fdd70e"/>
      <stop offset=".24" stop-color="#fdcb03"/>
      <stop offset=".36" stop-color="#fdc800"/>
      <stop offset=".67" stop-color="#f18f34"/>
      <stop offset=".89" stop-color="#e95f32"/>
      <stop offset="1" stop-color="#e3312d"/>
    </linearGradient>
    <linearGradient id="Degradado_sin_nombre_166-2" data-name="Degradado sin nombre 166" x1="296.5" y1="145.26" x2="395.06" y2="145.26" xlink:href="#Degradado_sin_nombre_166"/>
    <linearGradient id="Degradado_sin_nombre_166-3" data-name="Degradado sin nombre 166" x1="395.12" y1="66.26" x2="469.52" y2="66.26" xlink:href="#Degradado_sin_nombre_166"/>
  </defs>
  <path class="cls-3" d="M137.78,207.12c-1.74-36.24,14.91-68.41,53.82-74.6-21.52-12.29-47.34,7.28-61.11,22.7-8.11,9.09-16.26,17.1-27.11,22.91-34.31,18.36-68.18-2.01-89.08-30.01l11.25,6.93c12.82,7.89,28.21,6.9,41.14-.53,10.61-6.09,18.08-14.8,24.85-24.82,12.46-18.43,31.38-34.07,52.92-40.04-11.31-12.25-28.35-5.66-40.95-.23,42.1-43.96,94.3-42.3,144.59-11.31-15.54-17.35-20.45-39.97-13.32-62.21,8.14,14.57,20.34,25.01,36.66,26.78,14.34,1.56,28.65-1.99,41.28-9.07,10.88-6.1,21.29-10.78,32.69-16.17,28.81-13.62,61.13-14.21,90.39,1.67,25.06,13.6,44.19,39.25,48.8,69.55,6.28,41.3-14.65,80.2-50.8,100.28-21.24,11.8-42.06,23.14-65.98,28.9-11.05,2.66-21.71,5.05-33.81,3.86,8.37-6.83,17.88-14.75,16.47-28.44-12.6,9.93-25.87,17.06-41.19,20.93-13.25,3.35-26.3,5.61-40.05,5.89-26.38.54-52.41-6.96-73.93-23.29,15.63,1.66,29.81,3.41,44.74,1.42,16.68-2.22,37.2-9.11,46.49-24.52-20.58,7.13-41.22,6.03-61.02-1.43-20.5-7.73-42.37-4.58-60.41,7.21-11.1,7.26-19.34,16.3-27.33,27.64ZM410.61,182.06c1.85,1.91,5.82,4.54,9.07,3.34,36.32-13.33,59.33-48.59,57.4-87.27-10.02-24.38-27.23-43.9-49.26-58.19-16.45-10.56-34.01-17.71-52.86-23.12-34.47,5.96-62.58,31.22-70.8,65.93,15.37-18.98,38.31-26.31,60.94-18.26,12.24,4.35,22.72,11.66,32.07,20.69,12.56,12.86,19.15,29.34,19.13,47.45-.04,26.75-12.86,42.01-5.68,49.43ZM472.83,76.9c-10.94-36.09-44.17-60.15-80.71-60.93,38.41,13.42,60.36,27.89,80.71,60.93ZM403.34,134.85c.07-15.07-4.81-29.01-15.25-39.79-7.4-7.65-15.86-13.7-25.7-17.9-15.28-6.52-32.66-4.55-45.19,7.27-6.54,6.18-15.44,16.7-14.84,26.43,3.15,50.94,51.29,86.84,100.66,78.8-13.55-15.81.19-26.8.32-54.81Z"/>
  <g>
    <path class="cls-1" d="M410.61,182.06c-7.17-7.42,5.65-22.68,5.68-49.43.02-18.11-6.57-34.59-19.13-47.45-9.35-9.04-19.83-16.34-32.07-20.69-22.63-8.05-45.57-.73-60.94,18.26,8.22-34.71,36.33-59.97,70.8-65.93,18.86,5.41,36.42,12.56,52.86,23.12,22.03,14.29,39.25,33.8,49.26,58.19,1.93,38.68-21.08,73.94-57.4,87.27-3.25,1.19-7.22-1.43-9.07-3.34Z"/>
    <path class="cls-4" d="M403.34,134.85c-.12,28.01-13.87,38.99-.32,54.81-49.37,8.04-97.51-27.87-100.66-78.8-.6-9.73,8.3-20.25,14.84-26.43,12.52-11.82,29.91-13.79,45.19-7.27,9.84,4.2,18.29,10.25,25.7,17.9,10.44,10.79,15.31,24.72,15.25,39.79Z"/>
    <path class="cls-2" d="M472.83,76.9c-20.35-33.04-42.3-47.51-80.71-60.93,36.54.78,69.77,24.84,80.71,60.93Z"/>
  </g>
</svg>